<?xml version="1.0" standalone="no"?>
<!DOCTYPE svg PUBLIC "-//W3C//DTD SVG 20010904//EN"
 "http://www.w3.org/TR/2001/REC-SVG-20010904/DTD/svg10.dtd">
<svg version="1.0" xmlns="http://www.w3.org/2000/svg"
 width="676.000000pt" height="676.000000pt" viewBox="0 0 676.000000 676.000000"
 preserveAspectRatio="xMidYMid meet">
<metadata>
Created by potrace 1.11, written by Peter Selinger 2001-2013
</metadata>
<g transform="translate(0.000000,676.000000) scale(0.100000,-0.100000)"
fill="#000000" stroke="none">
<path d="M3275 6743 c-33 -7 -72 -16 -87 -20 -16 -3 -28 -9 -28 -14 0 -5 -4
-8 -8 -6 -10 3 -376 -203 -380 -215 -2 -4 -10 -8 -18 -8 -7 0 -38 -16 -68 -35
-30 -19 -59 -35 -65 -35 -5 0 -16 -6 -23 -13 -7 -6 -38 -25 -68 -41 -91 -49
-95 -51 -100 -57 -3 -4 -30 -19 -60 -35 -30 -15 -57 -30 -60 -33 -3 -4 -14
-11 -25 -17 -56 -31 -158 -88 -230 -130 -22 -13 -52 -29 -67 -36 -16 -7 -28
-15 -28 -18 0 -3 -20 -14 -45 -25 -25 -11 -45 -23 -45 -27 0 -5 -4 -8 -10 -8
-8 0 -133 -69 -180 -100 -8 -5 -31 -18 -50 -28 -19 -10 -96 -54 -170 -97 -74
-42 -148 -85 -165 -95 -69 -38 -161 -91 -175 -100 -8 -5 -96 -55 -195 -112
-99 -56 -188 -111 -198 -123 -54 -62 -68 -147 -37 -218 27 -64 46 -78 290
-215 25 -14 78 -45 118 -69 41 -24 75 -43 77 -43 2 0 42 -22 90 -50 48 -27 88
-50 90 -50 2 0 33 -18 69 -40 36 -22 70 -40 76 -40 5 0 10 -4 10 -10 0 -5 5
-10 12 -10 6 0 57 -26 112 -58 56 -33 109 -62 119 -65 9 -4 17 -11 17 -17 0
-5 7 -10 16 -10 8 0 32 -11 52 -25 20 -14 42 -25 48 -25 7 0 14 -3 16 -7 2 -5
21 -18 44 -30 l40 -22 120 70 c65 39 135 79 154 90 19 11 42 23 50 29 23 14
161 95 200 117 19 11 145 84 280 163 368 215 438 241 635 241 142 -1 302 -44
397 -106 21 -14 40 -25 43 -25 2 0 34 -18 70 -40 36 -22 70 -40 75 -40 6 0 10
-3 10 -8 0 -4 21 -18 48 -32 44 -23 259 -148 292 -170 8 -6 26 -16 40 -23 24
-12 83 -47 125 -75 11 -7 32 -18 48 -25 15 -6 27 -15 27 -19 0 -4 4 -8 10 -8
5 0 39 -18 75 -40 36 -22 67 -40 70 -40 2 0 21 -11 41 -25 l37 -25 66 37 c36
20 69 40 72 45 3 6 8 8 10 7 5 -4 160 80 182 99 9 8 17 12 17 8 0 -4 13 2 29
13 15 11 39 25 52 30 13 6 47 24 74 40 28 16 69 39 92 51 24 12 109 59 190
105 82 45 164 91 183 101 201 109 285 162 311 198 36 48 50 98 43 151 -5 39
-41 112 -66 132 -21 17 -381 223 -390 223 -4 0 -8 3 -8 8 0 4 -19 16 -43 27
-23 11 -44 22 -47 25 -4 4 -28 18 -115 64 -11 6 -22 14 -25 17 -3 3 -30 19
-60 36 -47 25 -160 91 -268 154 -15 9 -47 27 -72 41 -25 14 -80 46 -123 72
-43 25 -81 46 -83 46 -2 0 -21 11 -42 23 -20 13 -57 35 -82 49 -25 14 -116 66
-203 117 -86 50 -162 91 -167 91 -6 0 -10 5 -10 10 0 6 -7 10 -15 10 -8 0 -15
4 -15 10 0 5 -3 9 -7 8 -5 -2 -24 6 -43 18 -149 88 -178 104 -188 104 -7 0
-12 5 -12 10 0 6 -4 10 -10 10 -5 0 -38 17 -72 38 -35 21 -78 45 -95 53 -18 7
-33 16 -33 19 0 5 -151 84 -195 102 -82 34 -289 46 -390 21z"/>
<path d="M379 4771 c-50 -25 -72 -48 -98 -102 l-21 -46 5 -974 c12 -1928 8
-1796 60 -1935 48 -128 140 -249 244 -323 47 -33 341 -201 352 -201 5 0 9 -4
9 -8 0 -5 16 -14 35 -22 19 -8 35 -17 35 -22 0 -4 5 -8 10 -8 6 0 39 -18 75
-39 36 -22 74 -42 85 -46 11 -3 20 -11 20 -16 0 -5 5 -9 11 -9 6 0 38 -16 72
-36 34 -20 76 -45 94 -55 17 -10 50 -29 72 -43 22 -15 47 -26 55 -26 8 0 16
-4 18 -8 3 -7 30 -24 128 -80 19 -10 102 -58 184 -106 82 -47 151 -86 154 -86
2 0 16 -8 30 -19 15 -10 48 -30 75 -45 96 -53 138 -77 247 -141 61 -36 115
-65 121 -65 5 0 9 -4 9 -10 0 -5 5 -10 11 -10 6 0 23 -9 37 -19 15 -10 29 -18
32 -18 3 0 16 -6 30 -15 66 -41 363 -210 387 -220 105 -42 240 26 267 134 3
15 6 319 7 675 0 851 2 772 -18 780 -17 7 -150 82 -183 103 -8 6 -22 13 -30
17 -8 4 -52 29 -98 55 -46 26 -85 48 -86 48 -2 0 -89 49 -196 110 -106 60
-196 110 -201 110 -5 0 -9 3 -9 8 0 4 -14 13 -32 21 -18 8 -69 36 -114 63 -45
26 -85 48 -88 48 -6 0 -42 24 -90 60 -37 28 -132 125 -162 165 -67 89 -130
243 -148 360 -2 17 -5 319 -5 673 -1 564 -3 642 -16 642 -8 0 -15 5 -15 10 0
6 -4 10 -9 10 -6 0 -415 231 -676 382 -27 16 -58 32 -67 35 -10 3 -18 9 -18
14 0 5 -4 9 -9 9 -6 0 -88 44 -183 99 -95 54 -192 108 -215 120 -53 26 -133
27 -184 2z"/>
<path d="M6285 4772 c-33 -5 -77 -24 -135 -57 -30 -18 -118 -67 -195 -110 -77
-43 -157 -88 -177 -101 -21 -14 -38 -22 -38 -18 0 3 -12 -3 -27 -14 -16 -10
-53 -33 -83 -49 -30 -17 -124 -69 -208 -117 -84 -47 -157 -86 -162 -86 -6 0
-10 -4 -10 -10 0 -5 -4 -10 -9 -10 -5 0 -48 -22 -96 -50 -48 -27 -90 -50 -93
-50 -4 0 -18 -9 -32 -19 l-25 -20 -1 -218 c-1 -120 -4 -400 -5 -623 -3 -414
-7 -476 -34 -573 -6 -23 -10 -31 -41 -107 -27 -63 -86 -153 -142 -212 -56 -60
-157 -140 -166 -131 -3 4 -6 2 -6 -3 0 -6 -22 -21 -50 -35 -27 -13 -50 -27
-50 -31 0 -5 -5 -8 -11 -8 -10 0 -77 -36 -259 -140 -30 -17 -63 -34 -72 -37
-10 -3 -18 -10 -18 -15 0 -5 -4 -7 -9 -4 -5 3 -14 -1 -21 -9 -7 -8 -16 -15
-20 -15 -5 0 -55 -26 -112 -58 -57 -32 -110 -62 -118 -65 -8 -4 -42 -23 -75
-42 -33 -19 -71 -40 -84 -45 -13 -6 -35 -19 -48 -30 -14 -11 -29 -17 -34 -14
-5 3 -12 -2 -15 -10 -3 -9 -15 -16 -25 -16 -10 0 -19 -4 -19 -10 0 -5 -6 -10
-14 -10 -8 0 -16 -6 -18 -12 -2 -7 -3 -332 -2 -723 l2 -710 23 -44 c37 -69 85
-102 153 -106 32 -2 70 2 84 8 23 10 237 128 297 164 11 6 36 20 55 31 19 10
71 39 115 64 87 50 119 68 210 118 33 18 74 41 90 51 17 10 57 32 90 50 90 48
100 54 105 60 3 3 23 14 45 25 33 17 580 325 800 450 33 19 76 42 95 52 19 9
37 19 40 22 3 3 88 52 190 109 228 128 277 160 336 219 38 39 137 175 140 192
0 3 8 22 17 43 15 34 32 88 44 137 6 24 12 235 18 630 7 416 12 732 20 1205
16 924 16 974 -1 1013 -33 79 -131 138 -209 124z"/>
</g>
</svg>
